# This file uses centimeters as units for non-parametric coordinates.

mtllib Turret Lights.mtl
g default
v 1.165099 5.064736 1.400688
v 0.834033 4.908844 1.400688
v -0.174080 4.908844 1.400688
v -0.505149 5.064736 1.400689
v -0.505149 5.885265 1.400689
v -0.174080 6.041158 1.400688
v 0.834033 6.041158 1.400688
v 1.165099 5.885265 1.400688
v 1.165099 5.064736 1.481495
v 0.834033 4.908845 1.481495
v -0.174080 4.908845 1.481495
v -0.505149 5.064736 1.481496
v -0.505149 5.885265 1.481496
v -0.174080 6.041158 1.481495
v 0.834033 6.041158 1.481495
v 1.165099 5.885265 1.481495
v 1.615936 8.337461 -0.570846
v 1.615936 8.181569 -0.239780
v 1.615937 8.181569 0.768333
v 1.615937 8.337461 1.099402
v 1.615937 9.157990 1.099402
v 1.615937 9.313883 0.768333
v 1.615936 9.313883 -0.239780
v 1.615936 9.157990 -0.570846
v 1.696743 8.337461 -0.570846
v 1.696743 8.181570 -0.239780
v 1.696744 8.181570 0.768333
v 1.696744 8.337461 1.099402
v 1.696744 9.157990 1.099402
v 1.696744 9.313883 0.768333
v 1.696743 9.313883 -0.239780
v 1.696743 9.157990 -0.570846
v -1.632592 8.930697 1.145791
v -1.632592 8.774805 0.814725
v -1.632593 8.774805 -0.193388
v -1.632593 8.930697 -0.524457
v -1.632593 9.751226 -0.524457
v -1.632593 9.907119 -0.193388
v -1.632592 9.907119 0.814725
v -1.632592 9.751226 1.145791
v -1.713399 8.930697 1.145791
v -1.713399 8.774806 0.814725
v -1.713400 8.774806 -0.193388
v -1.713400 8.930697 -0.524457
v -1.713400 9.751226 -0.524457
v -1.713400 9.907119 -0.193388
v -1.713399 9.907119 0.814725
v -1.713399 9.751226 1.145791
v -0.552766 7.027446 -2.378077
v -0.221700 6.871553 -2.378077
v 0.786413 6.871553 -2.378078
v 1.117482 7.027446 -2.378078
v 1.117482 7.847975 -2.378078
v 0.786413 8.003867 -2.378078
v -0.221700 8.003867 -2.378077
v -0.552766 7.847975 -2.378077
v -0.552766 7.027446 -2.458884
v -0.221700 6.871554 -2.458884
v 0.786413 6.871554 -2.458884
v 1.117482 7.027446 -2.458885
v 1.117482 7.847975 -2.458885
v 0.786413 8.003867 -2.458884
v -0.221700 8.003867 -2.458884
v -0.552766 7.847975 -2.458884
vt 0.120457 0.310782
vt 0.098431 0.291274
vt 0.101683 0.285927
vt 0.123779 0.305194
vt 0.187812 0.352798
vt 0.190194 0.346891
vt 0.216719 0.364500
vt 0.218307 0.358214
vt 0.282406 0.372834
vt 0.282220 0.366618
vt 0.312973 0.369064
vt 0.311819 0.362883
vt 0.386928 0.343867
vt 0.384325 0.338242
vt 0.413387 0.328578
vt 0.410037 0.323181
vt 0.457096 0.280992
vt 0.453575 0.276748
vt 0.120457 0.310782
vt 0.098431 0.291274
vt 0.101683 0.285927
vt 0.123779 0.305194
vt 0.187812 0.352798
vt 0.190194 0.346891
vt 0.216719 0.364500
vt 0.218307 0.358214
vt 0.282406 0.372834
vt 0.282220 0.366618
vt 0.312973 0.369064
vt 0.311819 0.362883
vt 0.386928 0.343867
vt 0.384325 0.338242
vt 0.413387 0.328578
vt 0.410037 0.323181
vt 0.457096 0.280992
vt 0.453575 0.276748
vt 0.120457 0.310782
vt 0.098431 0.291274
vt 0.101683 0.285927
vt 0.123779 0.305194
vt 0.187812 0.352798
vt 0.190194 0.346891
vt 0.216719 0.364500
vt 0.218307 0.358214
vt 0.282406 0.372834
vt 0.282220 0.366618
vt 0.312973 0.369064
vt 0.311819 0.362883
vt 0.386928 0.343867
vt 0.384325 0.338242
vt 0.413387 0.328578
vt 0.410037 0.323181
vt 0.457096 0.280992
vt 0.453575 0.276748
vt 0.120457 0.310782
vt 0.098431 0.291274
vt 0.101683 0.285927
vt 0.123779 0.305194
vt 0.187812 0.352798
vt 0.190194 0.346891
vt 0.216719 0.364500
vt 0.218307 0.358214
vt 0.282406 0.372834
vt 0.282220 0.366618
vt 0.312973 0.369064
vt 0.311819 0.362883
vt 0.386928 0.343867
vt 0.384325 0.338242
vt 0.413387 0.328578
vt 0.410037 0.323181
vt 0.457096 0.280992
vt 0.453575 0.276748
vn -0.115628 0.993293 -0.000011
vn -0.426012 0.904717 -0.000008
vn -0.426012 0.904717 -0.000008
vn -0.115628 0.993293 -0.000011
vn 0.115628 0.993293 -0.000010
vn 0.115627 0.993293 -0.000010
vn 0.426009 0.904719 -0.000004
vn 0.426009 0.904719 -0.000004
vn 1.000000 0.000000 0.000000
vn 1.000000 0.000000 0.000000
vn 1.000000 0.000000 0.000000
vn 1.000000 0.000000 0.000000
vn 0.115628 -0.993293 0.000000
vn 0.426011 -0.904718 0.000000
vn 0.426011 -0.904718 0.000000
vn 0.115628 -0.993293 0.000000
vn -0.115628 -0.993293 0.000000
vn -0.115628 -0.993293 0.000000
vn -0.426013 -0.904717 0.000000
vn -0.426013 -0.904717 0.000000
vn -1.000000 0.000000 0.000000
vn -1.000000 0.000000 0.000000
vn -1.000000 0.000000 0.000000
vn -1.000000 0.000000 0.000000
vn -0.000010 0.993293 0.115628
vn -0.000005 0.904718 0.426011
vn -0.000005 0.904718 0.426011
vn -0.000010 0.993293 0.115627
vn -0.000010 0.993293 -0.115628
vn -0.000010 0.993293 -0.115627
vn -0.000006 0.904719 -0.426008
vn -0.000006 0.904719 -0.426008
vn 0.000000 0.000000 -1.000000
vn 0.000000 0.000000 -1.000000
vn 0.000000 0.000000 -1.000000
vn 0.000000 0.000000 -1.000000
vn 0.000000 -0.993293 -0.115628
vn 0.000000 -0.904719 -0.426010
vn 0.000000 -0.904719 -0.426010
vn 0.000000 -0.993293 -0.115628
vn 0.000000 -0.993293 0.115628
vn 0.000000 -0.993293 0.115628
vn 0.000000 -0.904717 0.426012
vn 0.000000 -0.904717 0.426012
vn 0.000000 0.000000 1.000000
vn 0.000000 0.000000 1.000000
vn 0.000000 0.000000 1.000000
vn 0.000000 0.000000 1.000000
vn 0.000010 0.993293 -0.115628
vn 0.000005 0.904718 -0.426011
vn 0.000005 0.904718 -0.426012
vn 0.000010 0.993293 -0.115627
vn 0.000010 0.993293 0.115628
vn 0.000010 0.993293 0.115627
vn 0.000005 0.904719 0.426009
vn 0.000005 0.904719 0.426009
vn 0.000000 0.000000 1.000000
vn 0.000000 0.000000 1.000000
vn 0.000000 0.000000 1.000000
vn 0.000000 0.000000 1.000000
vn 0.000000 -0.993293 0.115629
vn 0.000000 -0.904719 0.426010
vn 0.000000 -0.904719 0.426010
vn 0.000000 -0.993293 0.115628
vn 0.000000 -0.993293 -0.115628
vn 0.000000 -0.993293 -0.115628
vn 0.000000 -0.904717 -0.426013
vn 0.000000 -0.904717 -0.426013
vn 0.000000 0.000000 -1.000000
vn 0.000000 0.000000 -1.000000
vn 0.000000 0.000000 -1.000000
vn 0.000000 0.000000 -1.000000
vn 0.115628 0.993293 0.000010
vn 0.426012 0.904717 0.000003
vn 0.426012 0.904717 0.000003
vn 0.115628 0.993293 0.000010
vn -0.115628 0.993293 0.000011
vn -0.115627 0.993293 0.000011
vn -0.426009 0.904719 0.000008
vn -0.426009 0.904719 0.000008
vn -1.000000 0.000000 0.000000
vn -1.000000 0.000000 0.000000
vn -1.000000 0.000000 0.000000
vn -1.000000 0.000000 0.000000
vn -0.115628 -0.993293 0.000000
vn -0.426010 -0.904718 0.000000
vn -0.426010 -0.904718 0.000000
vn -0.115628 -0.993293 0.000000
vn 0.115628 -0.993293 0.000000
vn 0.115628 -0.993293 0.000000
vn 0.426012 -0.904717 0.000000
vn 0.426012 -0.904717 0.000000
vn 1.000000 0.000000 0.000000
vn 1.000000 0.000000 0.000000
vn 1.000000 0.000000 0.000000
vn 1.000000 0.000000 0.000000
s 1
g turretLIGHTSTRIPs
usemtl aiStandardSurface24SG
f 10/1/1 9/2/2 1/3/3 2/4/4
f 11/5/5 10/1/1 2/4/4 3/6/6
f 12/7/7 11/5/5 3/6/6 4/8/8
s off
f 13/9/9 12/7/10 4/8/11 5/10/12
s 2
f 14/11/13 13/9/14 5/10/15 6/12/16
f 15/13/17 14/11/13 6/12/16 7/14/18
f 16/15/19 15/13/17 7/14/18 8/16/20
s off
f 9/17/21 16/15/22 8/16/23 1/18/24
s 3
f 26/19/25 25/20/26 17/21/27 18/22/28
f 27/23/29 26/19/25 18/22/28 19/24/30
f 28/25/31 27/23/29 19/24/30 20/26/32
s off
f 29/27/33 28/25/34 20/26/35 21/28/36
s 4
f 30/29/37 29/27/38 21/28/39 22/30/40
f 31/31/41 30/29/37 22/30/40 23/32/42
f 32/33/43 31/31/41 23/32/42 24/34/44
s off
f 25/35/45 32/33/46 24/34/47 17/36/48
s 5
f 42/37/49 41/38/50 33/39/51 34/40/52
f 43/41/53 42/37/49 34/40/52 35/42/54
f 44/43/55 43/41/53 35/42/54 36/44/56
s off
f 45/45/57 44/43/58 36/44/59 37/46/60
s 6
f 46/47/61 45/45/62 37/46/63 38/48/64
f 47/49/65 46/47/61 38/48/64 39/50/66
f 48/51/67 47/49/65 39/50/66 40/52/68
s off
f 41/53/69 48/51/70 40/52/71 33/54/72
s 7
f 58/55/73 57/56/74 49/57/75 50/58/76
f 59/59/77 58/55/73 50/58/76 51/60/78
f 60/61/79 59/59/77 51/60/78 52/62/80
s off
f 61/63/81 60/61/82 52/62/83 53/64/84
s 8
f 62/65/85 61/63/86 53/64/87 54/66/88
f 63/67/89 62/65/85 54/66/88 55/68/90
f 64/69/91 63/67/89 55/68/90 56/70/92
s off
f 57/71/93 64/69/94 56/70/95 49/72/96
